<?xml version="1.0" encoding="UTF-8"?>
<svg width="197px" height="56px" viewBox="0 0 197 56" version="1.1" xmlns="http://www.w3.org/2000/svg" xmlns:xlink="http://www.w3.org/1999/xlink">
    <!-- Generator: Sketch 53.2 (72643) - https://sketchapp.com -->
    <title>Group</title>
    <desc>Created with Sketch.</desc>
    <g id="Page-1" stroke="none" stroke-width="1" fill="none" fill-rule="evenodd">
        <g id="Artboard" transform="translate(-436.000000, -474.000000)">
            <g id="Group" transform="translate(436.000000, 474.000000)">
                <path d="M7.83333879,55.5336079 L0.395408353,55.5336079 C0.177224859,55.5336079 -1.24344979e-14,55.3563831 -1.24344979e-14,55.1381996 L-1.24344979e-14,12.0701957 C-1.24344979e-14,10.1923999 1.52334613,8.66747842 3.4027173,8.66747842 L18.3352901,8.66747842 C18.5534736,8.66747842 18.7306985,8.84470328 18.7306985,9.06288678 L18.7306985,17.206566 C18.7306985,17.4247495 18.5534736,17.6019743 18.3352901,17.6019743 L8.93055759,17.6019743 C8.54302589,17.6019743 8.22874714,17.9162531 8.22874714,18.3029971 L8.22874714,21.2803748 C8.22874714,21.6726324 8.54696422,21.9916372 8.93922191,21.9916372 L18.3352901,21.9916372 C18.5534736,21.9916372 18.7306985,22.1680744 18.7306985,22.3862579 L18.7306985,30.7646616 C18.7306985,30.9836327 18.5534736,31.1600699 18.3352901,31.1600699 L8.91953026,31.1600699 C8.5382999,31.1600699 8.22874714,31.468835 8.22874714,31.850853 L8.22874714,55.1381996 C8.22874714,55.3563831 8.05152228,55.5336079 7.83333879,55.5336079" id="Fill-1" fill="#0A0B09"></path>
                <path d="M27.8068955,17.5345501 L21.331493,17.5345501 C20.847866,17.5345501 20.4548207,17.1422924 20.4548207,16.6578778 L20.4548207,9.5444658 C20.4548207,9.06083885 20.847866,8.66779349 21.331493,8.66779349 L27.8068955,8.66779349 C28.2913101,8.66779349 28.6835678,9.06083885 28.6835678,9.5444658 L28.6835678,16.6578778 C28.6835678,17.1422924 28.2913101,17.5345501 27.8068955,17.5345501" id="Fill-3" fill="#DB3933"></path>
                <path d="M28.011925,55.5336079 L21.1269361,55.5336079 C20.7559454,55.5336079 20.455057,55.2327195 20.455057,54.8609411 L20.455057,22.5839621 C20.455057,22.2129714 20.7559454,21.9120829 21.1269361,21.9120829 L28.011925,21.9120829 C28.3829157,21.9120829 28.6838041,22.2129714 28.6838041,22.5839621 L28.6838041,54.8609411 C28.6838041,55.2327195 28.3829157,55.5336079 28.011925,55.5336079" id="Fill-5" fill="#0A0B09"></path>
                <path d="M30.9614193,47.0693486 L79.7021939,47.0693486 C80.0920886,47.0693486 80.4087304,46.7542822 80.4087304,46.3635999 L80.4087304,43.8588219 C80.4087304,43.4681395 80.0920886,43.1507101 79.7021939,43.1507101 L34.648484,43.1507101 C32.3926085,43.1507101 30.5652232,41.3233249 30.5652232,39.0674493 L30.5652232,26.3104101 C30.5652232,24.0537469 32.3926085,22.225574 34.648484,22.225574 L88.8682637,22.225574 C89.0872348,22.225574 89.2652474,22.4043742 89.2652474,22.6225577 L89.2652474,30.8418528 C89.2652474,31.0616117 89.0872348,31.2380489 88.8682637,31.2380489 L40.127489,31.2380489 C39.7368066,31.2380489 39.4209525,31.5554783 39.4209525,31.945373 L39.4209525,34.2934054 C39.4209525,34.6840878 39.7368066,35.0007295 40.127489,35.0007295 L85.1811989,35.0007295 C87.4362868,35.0007295 89.2652474,36.8296901 89.2652474,39.0839903 L89.2652474,51.4503472 C89.2652474,53.7062227 87.4362868,55.5336079 85.1811989,55.5336079 L30.9614193,55.5336079 C30.7424481,55.5336079 30.5652232,55.3563831 30.5652232,55.1366243 L30.5652232,47.46712 C30.5652232,47.2481488 30.7424481,47.0693486 30.9614193,47.0693486" id="Fill-7" fill="#0A0B09"></path>
                <path d="M99.6087991,34.3654769 L99.6087991,32.0237457 C99.6087991,31.633851 99.9278038,31.3187846 100.316911,31.3187846 L139.497783,31.3187846 C139.890828,31.3187846 140.205107,31.633851 140.205107,32.0237457 L140.205107,34.3654769 C140.205107,34.7553716 139.890828,35.0735887 139.497783,35.0735887 L100.316911,35.0735887 C99.9278038,35.0735887 99.6087991,34.7553716 99.6087991,34.3654769 M100.470506,43.3858284 L149.379053,43.3858284 C149.594086,43.3858284 149.768948,43.2125419 149.768948,42.9967214 L149.768948,26.5849117 C149.768948,24.3172212 147.929748,22.482747 145.662057,22.482747 L95.3286218,22.482747 C93.0609313,22.482747 91.2233064,24.3172212 91.2233064,26.5849117 L91.2233064,51.4286864 C91.2233064,53.6963769 93.0609313,55.5347894 95.3286218,55.5347894 L149.379053,55.5347894 C149.594086,55.5347894 149.768948,55.3575646 149.768948,55.1456824 L149.768948,47.3824459 C149.768948,47.1658377 149.594086,46.9925512 149.379053,46.9925512 L100.470506,46.9925512 C100.081399,46.9925512 99.7647569,46.6766971 99.7647569,46.2883778 L99.7647569,44.0876388 C99.7647569,43.7016825 100.081399,43.3858284 100.470506,43.3858284" id="Fill-9" fill="#0A0B09"></path>
                <path d="M193.564125,8.9474937 C193.439674,9.1239309 193.359332,9.32872407 193.327825,9.55399655 L193.318373,9.6201605 C193.314435,9.65245481 193.313647,9.68632445 193.316798,9.72728308 L193.329401,9.91080927 L193.510564,9.87851496 C193.67046,9.84937132 193.777583,9.7895087 193.837445,9.69656411 C193.865801,9.65087948 193.894157,9.60992084 193.931177,9.56581155 C193.988677,9.48704494 194.063505,9.40434001 194.152512,9.32084741 C194.243881,9.23656714 194.343127,9.16173887 194.449462,9.09715025 C194.551858,9.03413697 194.659769,8.986877 194.769254,8.9545827 C194.870863,8.92543905 194.969321,8.91677473 195.063841,8.93016505 C195.122129,8.93804171 195.144183,8.95930869 195.155998,8.97427435 C195.188292,9.01129465 195.209559,9.05461628 195.22295,9.10896524 C195.240278,9.17119086 195.248943,9.2397178 195.247367,9.31375841 C195.245004,9.39646335 195.239491,9.47207929 195.230039,9.5390309 L195.216648,9.63985215 C195.215073,9.65639314 195.210347,9.67135879 195.200107,9.7012901 C195.036273,10.3109436 194.786583,10.8757002 194.455763,11.3774434 C194.124943,11.8768237 193.692515,12.328944 193.164778,12.722777 C193.093101,12.779489 193.011184,12.833838 192.917451,12.8858239 C192.822931,12.9393852 192.724473,12.9850698 192.623652,13.0228778 C192.526769,13.0598981 192.422009,13.0874664 192.316462,13.1047951 C192.216429,13.1221237 192.118758,13.1236991 192.02345,13.1095211 C191.853314,13.0858911 191.719411,13.0268161 191.611501,12.9299332 C191.497289,12.826749 191.412221,12.7062361 191.349208,12.5605178 C191.286195,12.4124366 191.248387,12.2462391 191.233421,12.0682266 C191.219243,11.8839127 191.224757,11.7027495 191.249962,11.5286753 C191.272017,11.3735051 191.307462,11.2340882 191.353934,11.116726 C191.479961,10.8158376 191.622528,10.5338531 191.776911,10.2778616 C191.928143,10.0289592 192.112457,9.80053603 192.326702,9.59810585 C192.538584,9.39725101 192.790637,9.21766315 193.072621,9.06485594 C193.249846,8.97033602 193.445188,8.88526808 193.656282,8.81280281 C193.626351,8.85848744 193.595632,8.9033844 193.564125,8.9474937 M195.944452,8.78917283 C195.872774,8.55366068 195.711303,8.36225783 195.466339,8.21890261 C195.437195,8.13304701 195.411202,8.0684584 195.382846,8.01883544 C195.337949,7.94006883 195.274936,7.87705555 195.196169,7.83137092 C195.126067,7.79041229 195.038636,7.76205631 194.928363,7.74315232 C194.838569,7.72818667 194.72357,7.70928268 194.580214,7.68959103 C194.367544,7.65965972 194.144635,7.65493373 193.921725,7.67856371 C193.701179,7.70061836 193.482208,7.74078933 193.273476,7.79907661 C193.063957,7.8573639 192.861527,7.93140451 192.670912,8.01883544 C192.478721,8.10705403 192.302284,8.20551229 192.151052,8.30712121 C191.520132,8.69859123 191.021539,9.17197852 190.67024,9.71625576 C190.318941,10.2597453 190.098395,10.8363169 190.012539,11.4310047 C189.965279,11.7791531 189.965279,12.1036715 190.012539,12.3958956 C190.06295,12.6928457 190.154319,12.9567139 190.285859,13.1811987 C190.42055,13.4088342 190.595412,13.595511 190.809657,13.7365032 C191.022327,13.8767078 191.268079,13.9672894 191.53746,14.0050974 C191.629617,14.0177 191.72335,14.024789 191.818657,14.024789 C192.004546,14.024789 192.192011,14.0003714 192.383414,13.9515361 C192.669336,13.8767078 192.957622,13.7420169 193.223853,13.557703 C193.48142,13.4182862 193.71772,13.2552393 193.931177,13.0725008 C194.139909,12.8913376 194.337613,12.6959964 194.515626,12.4904156 C194.692851,12.2871977 194.859836,12.0690142 195.011855,11.8429541 C195.157574,11.6247706 195.300929,11.3955598 195.440346,11.1490203 C195.489969,11.0426854 195.542742,10.9276861 195.597091,10.8024472 C195.653015,10.6772083 195.707364,10.5456681 195.758563,10.4086142 C195.810549,10.2715603 195.857021,10.1329311 195.900343,9.99272654 C195.94524,9.84622066 195.978322,9.69892711 195.998013,9.55714722 C196.038184,9.2814641 196.01928,9.02310964 195.944452,8.78917283" id="Fill-52" fill="#DB3933"></path>
                <path d="M178.23386,35.2047351 C176.556919,37.4511586 174.610596,39.5865212 172.395679,41.5856177 C171.102331,42.5851659 169.794018,43.3791332 168.489643,43.9604308 C167.135645,44.5629953 165.808428,44.8686097 164.540286,44.8686097 C162.525436,44.8686097 160.870549,44.0462864 159.626037,42.4260573 C158.413031,40.8475746 157.82307,38.3443719 157.82307,34.7738817 C157.82307,30.8150722 158.55875,26.9948919 160.008843,23.4181004 C161.462087,19.8397336 163.782551,16.3653387 166.906434,13.0925862 C167.544444,12.4514261 168.304542,11.8000263 169.167824,11.1509895 C170.02638,10.5043156 170.949524,9.90726477 171.912052,9.37637786 C172.872217,8.84627862 173.8568,8.41306229 174.837444,8.09248221 C175.849595,7.76402547 176.77589,7.5986156 177.596638,7.5986156 C179.646145,7.5986156 180.821343,8.77617634 180.821343,10.831197 L180.821343,11.4345492 L180.237682,11.5881441 C179.247586,11.8480739 178.272455,12.2655369 177.337496,12.8302935 C176.393084,13.4037143 175.500659,14.0976481 174.686212,14.8924032 C173.8568,15.7013362 173.071496,16.5906111 172.35472,17.5350227 C171.624554,18.4936123 170.959764,19.4616539 170.374528,20.4123668 C170.305213,20.534455 170.2422,20.6463036 170.1847,20.7494878 C170.278433,20.6557556 170.376891,20.5478453 170.484801,20.4281201 C171.258289,19.5585368 172.170407,18.5834062 173.19516,17.5310844 C174.243544,16.4551326 175.431344,15.44692 176.726267,14.5332274 C178.112559,13.5557339 179.578406,13.0595043 181.086786,13.0595043 C181.914623,13.0595043 182.677084,13.3273107 183.348963,13.85741 C184.027931,14.3875092 184.509195,15.2657569 184.781728,16.4693106 L184.802207,16.5977001 L184.800631,16.6575628 C184.728954,20.3729835 184.059438,23.8843987 182.807836,27.1382471 L184.313066,27.1382471 C185.184225,24.5925105 185.861618,21.9522539 186.327128,19.2403197 C186.37045,19.0166226 186.403532,18.7850487 186.424799,18.5369339 C186.444491,18.2817301 186.457093,18.0470057 186.457093,17.8335482 C186.457093,16.4378039 186.101856,15.107436 185.404771,13.8794646 C184.727379,12.6916642 183.646701,11.8693409 182.097362,11.3660223 L181.630276,11.2132151 L181.564899,10.7264375 C181.433359,9.76548489 181.220689,8.8628196 180.936342,8.04443458 C180.662234,7.2717342 180.295969,6.61245772 179.851726,6.08550914 C179.420872,5.57982754 178.852965,5.18284385 178.16297,4.90716074 C177.443043,4.61966263 176.491542,4.47394442 175.336036,4.47394442 C173.239269,4.47394442 171.127537,5.03161197 169.0544,6.13119377 C166.912736,7.27094653 164.907338,8.6076158 163.094918,10.104969 C161.435306,11.5857811 159.89857,13.2832014 158.535907,15.1436686 C157.169307,17.0159508 155.994897,18.9969309 155.045759,21.0330476 C154.09032,23.081767 153.34125,25.232883 152.820603,27.4288959 C152.300743,29.6225458 152.036875,31.8343121 152.036875,34.0035443 C152.036875,35.5079865 152.28499,37.0793802 152.773343,38.6751916 C153.257757,40.2654894 153.983985,41.7163702 154.929972,42.9900262 C155.866507,44.2518672 157.059033,45.3120657 158.476045,46.141478 C159.8647,46.9527741 161.532189,47.3639357 163.436765,47.3639357 C165.356308,47.3639357 167.25222,46.8984251 169.06779,45.9784312 C170.94401,45.0285059 172.767457,43.8139249 174.484569,42.3661947 C176.905855,40.3080233 178.960875,37.9064296 180.626001,35.2047351 L178.23386,35.2047351 Z" id="Fill-53" fill="#DB3933"></path>
                <path d="M165.065029,32.7855763 L166.00629,32.7855763 L166.00629,29.7601511 L165.258007,29.7601511 L165.258007,29.4190917 C165.633724,29.3537154 165.904681,29.2536818 166.132316,29.1174156 L166.536389,29.1174156 L166.536389,32.7855763 L167.384705,32.7855763 L167.384705,33.2266693 L165.065029,33.2266693 L165.065029,32.7855763 Z" id="Fill-54" fill="#0A0B09"></path>
                <path d="M168.741066,32.869384 L169.035653,32.5385643 C169.201851,32.7362684 169.453904,32.862295 169.711471,32.862295 C170.303796,32.862295 170.796087,32.3936337 170.796087,31.0152181 C170.796087,30.0054303 170.469205,29.4572147 169.880031,29.4572147 C169.478322,29.4572147 169.165618,29.8163904 169.165618,30.3583047 C169.165618,30.8939176 169.416884,31.230251 169.925716,31.230251 C170.192735,31.230251 170.526705,31.0703548 170.809477,30.6481658 L170.826806,31.0672041 C170.568451,31.4122018 170.184858,31.62881 169.838285,31.62881 C169.124659,31.62881 168.664662,31.201895 168.664662,30.3583047 C168.664662,29.5714263 169.219967,29.0397517 169.879244,29.0397517 C170.69054,29.0397517 171.297042,29.6966652 171.297042,31.0152181 C171.297042,32.6677415 170.551123,33.303388 169.732738,33.303388 C169.290069,33.303388 168.967126,33.1151358 168.741066,32.869384" id="Fill-55" fill="#0A0B09"></path>
                <path d="M172.571722,31.3279216 C172.571722,29.6746105 173.317642,29.0397517 174.136815,29.0397517 C174.579483,29.0397517 174.896913,29.2272162 175.126911,29.4737557 L174.832324,29.8045754 C174.666914,29.6068713 174.413286,29.4808447 174.158082,29.4808447 C173.56812,29.4808447 173.07189,29.9502937 173.07189,31.3279216 C173.07189,32.3377094 173.400347,32.8867127 173.989521,32.8867127 C174.392806,32.8867127 174.703147,32.5267493 174.703147,31.984835 C174.703147,31.4500098 174.452669,31.1128887 173.943049,31.1128887 C173.67603,31.1128887 173.342847,31.2735726 173.060075,31.6949739 L173.041171,31.2759356 C173.299526,30.9309379 173.683907,30.7151174 174.032055,30.7151174 C174.744893,30.7151174 175.204102,31.1420324 175.204102,31.984835 C175.204102,32.7717134 174.649585,33.303388 173.990309,33.303388 C173.179801,33.303388 172.571722,32.6472622 172.571722,31.3279216" id="Fill-56" fill="#0A0B09"></path>
                <path d="M176.441604,32.869384 L176.736191,32.5385643 C176.903177,32.7362684 177.15523,32.862295 177.412009,32.862295 C178.005121,32.862295 178.497413,32.3936337 178.497413,31.0152181 C178.497413,30.0054303 178.170531,29.4572147 177.581357,29.4572147 C177.179647,29.4572147 176.866944,29.8163904 176.866944,30.3583047 C176.866944,30.8939176 177.11821,31.230251 177.627042,31.230251 C177.894061,31.230251 178.228031,31.0703548 178.510015,30.6481658 L178.528132,31.0672041 C178.269777,31.4122018 177.886184,31.62881 177.539611,31.62881 C176.825985,31.62881 176.365988,31.201895 176.365988,30.3583047 C176.365988,29.5714263 176.920505,29.0397517 177.579782,29.0397517 C178.391078,29.0397517 178.998368,29.6966652 178.998368,31.0152181 C178.998368,32.6677415 178.253236,33.303388 177.434064,33.303388 C176.991395,33.303388 176.668452,33.1151358 176.441604,32.869384" id="Fill-57" fill="#0A0B09"></path>
                <polygon id="Fill-58" fill="#0A0B09" points="180.230593 31.8141478 181.707467 31.8141478 181.707467 31.4077121 180.230593 31.4077121"></polygon>
                <path d="M182.824456,32.9124693 C184.060304,31.6813473 184.758176,30.9409412 184.758176,30.2730004 C184.758176,29.8043391 184.50376,29.4711564 183.979962,29.4711564 C183.635752,29.4711564 183.33959,29.6893399 183.104865,29.9642353 L182.798463,29.6649222 C183.141886,29.2860549 183.512089,29.0395154 184.045339,29.0395154 C184.804649,29.0395154 185.278036,29.519204 185.278036,30.2493704 C185.278036,31.0212832 184.569924,31.7868946 183.600307,32.8053468 C183.824004,32.7888058 184.079208,32.7706894 184.29109,32.7706894 L185.478103,32.7706894 L185.478103,33.2259604 L182.824456,33.2259604 L182.824456,32.9124693 Z" id="Fill-59" fill="#0A0B09"></path>
                <path d="M188.823478,31.1563679 C188.823478,29.9512389 188.498172,29.4660366 188.020059,29.4660366 C187.543521,29.4660366 187.218215,29.9512389 187.218215,31.1563679 C187.218215,32.3607093 187.543521,32.8766305 188.020059,32.8766305 C188.498172,32.8766305 188.823478,32.3607093 188.823478,31.1563679 M186.705444,31.1563679 C186.705444,29.7795277 187.200099,29.0391216 188.020059,29.0391216 C188.840807,29.0391216 189.337037,29.7818907 189.337037,31.1563679 C189.337037,32.5339958 188.840807,33.3035455 188.020059,33.3035455 C187.200099,33.3035455 186.705444,32.5339958 186.705444,31.1563679" id="Fill-60" fill="#0A0B09"></path>
                <path d="M190.775709,32.7855763 L191.716969,32.7855763 L191.716969,29.7601511 L190.968687,29.7601511 L190.968687,29.4190917 C191.344403,29.3537154 191.615361,29.2536818 191.842208,29.1174156 L192.247069,29.1174156 L192.247069,32.7855763 L193.095385,32.7855763 L193.095385,33.2266693 L190.775709,33.2266693 L190.775709,32.7855763 Z" id="Fill-61" fill="#0A0B09"></path>
                <path d="M194.451746,32.869384 L194.746333,32.5385643 C194.912531,32.7362684 195.164584,32.862295 195.422151,32.862295 C196.014475,32.862295 196.506767,32.3936337 196.506767,31.0152181 C196.506767,30.0054303 196.179885,29.4572147 195.590711,29.4572147 C195.189001,29.4572147 194.876298,29.8163904 194.876298,30.3583047 C194.876298,30.8939176 195.127563,31.230251 195.636396,31.230251 C195.903414,31.230251 196.237385,31.0703548 196.520157,30.6481658 L196.537486,31.0672041 C196.279131,31.4122018 195.895538,31.62881 195.548965,31.62881 C194.835339,31.62881 194.375342,31.201895 194.375342,30.3583047 C194.375342,29.5714263 194.930647,29.0397517 195.589923,29.0397517 C196.400432,29.0397517 197.007722,29.6966652 197.007722,31.0152181 C197.007722,32.6677415 196.261803,33.303388 195.443418,33.303388 C195.000749,33.303388 194.677806,33.1151358 194.451746,32.869384" id="Fill-62" fill="#0A0B09"></path>
                <path d="M161.264382,0.873129103 C160.445997,0.613986975 159.455901,0.436762116 158.32245,0.346180521 C157.138588,0.254023594 155.927157,0.218578622 154.722028,0.243783936 C153.44916,0.267413917 152.411804,0.25481126 151.650131,0.206763632 C151.031025,0.159503669 150.452878,0.113031373 149.916478,0.0665590761 C148.8933,-0.0224471867 147.774026,-0.0224471867 146.176639,0.0681344082 C145.400001,0.11145604 144.598157,0.191010311 143.790799,0.306009553 C143.014948,0.417070465 142.286357,0.574603673 141.631019,0.771520184 C141.024516,0.951895708 140.565307,1.15747654 140.267569,1.38196137 C139.497231,2.02390919 138.62371,2.95808112 137.679298,4.14745684 C136.718346,5.36125021 135.828283,6.61048855 135.031953,7.86287756 C134.231684,9.11762957 133.53775,10.3211833 132.965905,11.4380937 C132.264094,12.8157216 132.125465,13.4072588 132.104198,13.6364697 C132.108136,13.7940029 132.306628,13.9554744 132.472038,14.057871 C132.904467,14.3264651 133.423539,14.5580389 134.015076,14.7478664 C134.631031,14.9463583 135.237533,15.0897135 135.814105,15.1747814 C136.584442,15.2882053 136.885331,15.305534 136.994816,15.305534 C137.884879,15.305534 138.840318,15.237007 139.833565,15.1031038 C140.887462,14.9589609 141.935845,14.8864957 142.947209,14.8864957 C144.480794,14.8864957 145.734759,15.1700554 146.672869,15.7316613 C147.599164,16.2869659 148.315153,16.9927147 148.80193,17.829216 C149.269016,18.6342107 149.58487,19.499068 149.737678,20.4017333 C149.884971,21.2547756 149.959012,22.0408663 149.959012,22.7387384 C149.812506,24.5944796 149.294222,26.5187478 148.421488,28.4831869 C147.554267,30.4342357 146.406638,32.2529566 145.010894,33.8889389 C143.606485,35.5359486 141.946085,36.9120012 140.078529,37.9800764 C138.170802,39.0709938 136.120507,39.6239354 133.984357,39.6239354 C133.306964,39.6239354 132.616969,39.5176005 131.935637,39.3072936 C131.257457,39.1017128 130.62181,38.7960984 130.043664,38.403053 C129.451339,37.9989803 128.955897,37.5035384 128.574666,36.9301175 C128.161929,36.3117997 127.95241,35.6351945 127.95241,34.9207814 C127.95241,34.1866767 128.124909,33.4966812 128.466756,32.8673361 C128.71172,32.4152158 128.940931,31.8914178 129.151238,31.3187846 L125.969855,31.3187846 C125.86352,31.9418285 125.807596,32.5176123 125.807596,33.0303829 C125.807596,34.2079437 126.050984,35.2917721 126.529098,36.2535124 C127.012725,37.2199786 127.697994,38.0619936 128.559701,38.7551397 C129.437161,39.4624638 130.504448,40.0177684 131.734783,40.4053001 C132.979295,40.7991331 134.371101,40.9984126 135.876331,40.9984126 C138.93405,40.9984126 141.733415,40.5006077 144.196447,39.5183881 C146.661842,38.5330179 148.781451,37.2223416 150.498563,35.6225919 C152.2141,34.0220545 153.555495,32.167101 154.484153,30.1112926 C155.413599,28.0570596 155.886986,25.9209092 155.886986,23.7627043 C155.886986,20.6002251 154.685008,18.1915424 152.21725,16.3996021 C149.703808,14.5753676 146.231776,13.64986 141.894887,13.64986 L140.740168,13.64986 C140.375479,13.64986 139.991886,13.671127 139.601203,13.7136609 L137.971522,13.8877351 L138.857647,12.5124702 C139.36963,11.7177152 139.914694,10.8512825 140.49678,9.91632293 C141.085166,8.97033602 141.682217,8.03616409 142.293446,7.11223182 C142.914914,6.17648457 143.562376,5.27145628 144.219289,4.42392762 C144.884867,3.55907031 145.589041,2.75250028 146.310543,2.02548452 L146.541329,1.79548604 L147.498343,1.79548604 C148.542788,1.79548604 149.540761,1.83093101 150.463118,1.90260862 C151.346092,1.96956023 152.210161,2.00342987 153.027759,2.00342987 C153.731932,2.00342987 154.635385,2.01603253 155.739693,2.03808718 C156.801467,2.06329249 157.866391,2.05226517 158.908473,2.00421754 C159.895419,1.96168357 160.764215,1.85141033 161.492018,1.6757608 C161.812598,1.59778186 161.979583,1.51035093 162.042597,1.4646663 C162.027631,1.32761241 161.928385,1.08264827 161.264382,0.873129103" id="Fill-63" fill="#DB3933"></path>
            </g>
        </g>
    </g>
</svg>