<?xml version="1.0" encoding="utf-8"?>
<!-- Generator: Adobe Illustrator 21.0.2, SVG Export Plug-In . SVG Version: 6.00 Build 0)  -->
<svg version="1.1" id="Livello_1" xmlns="http://www.w3.org/2000/svg" xmlns:xlink="http://www.w3.org/1999/xlink" x="0px" y="0px"
	 viewBox="0 0 1000 352.8" style="enable-background:new 0 0 1000 352.8;" xml:space="preserve">
<style type="text/css">
	.st0{fill:#00365F;}
	.st1{fill:#37B5C7;}
	.st2{fill:#F1812E;}
</style>
<path class="st0" d="M532.2,237.1v9.7c0,5.9-3.5,7.8-7.8,7.8h-7.3c-4.3,0-7.8-1.8-7.8-7.8v-9.1c0,0,5.9-113.5-59.6-163.5
	C351.3-0.9,251.6,60.7,248.6,62.7c1.4,0.7,2.8,1.5,4.2,2.2c2.3,1.1,4.4,2.5,6.6,3.8C268,74,276.2,80.5,283,88.2l2.5,2.9l2.3,3
	c1.5,2.1,3,4.3,4.4,6.5c2.7,4.4,5,9.1,6.7,14c3.5,9.8,4.7,20.4,3.7,30.7c-0.5,5.2-1.5,10.2-3,15.3l-1.2,3.6l-1.4,3.7l-1.4,3.5
	l-1.7,3.6c-4.4,9.1-10.3,17.8-17,25.4c-1.7,1.9-3.4,3.8-5.2,5.6l-5.4,5.3l-5.7,5.2l-5.6,4.9c-8,6.3-16.4,12-25.2,17.1l-6.7,3.7
	l-6.7,3.4c-4.6,2.3-9.2,4.4-13.8,6.4c-9.3,4-18.8,7.4-28.6,10.3c-2.4,0.7-4.8,1.4-7.3,2.1c-2.4,0.6-4.8,1.3-7.3,1.8
	c-5,1.2-9.9,2.2-14.9,3.1c-9.9,1.8-20,3.1-30.1,3.8l-7.6,0.5c-1.4,0.1-2.6,0-3.8,0.1h-3.8h-3.7l-3.8-0.2l-3.7-0.2l-3.8-0.3l-3.9-0.3
	l-3.7-0.4c-2.5-0.3-5-0.6-7.5-1c-2.6-0.4-5.1-0.8-7.6-1.3s-5-1.1-7.5-1.7l-7.3-1.8c-2.5-0.7-5-1.4-7.5-2.2
	c-4.9-1.6-9.7-3.6-14.4-6.1c-9.3-4.8-17.7-11.7-24.1-20.1c-0.4-0.5-0.7-1.2-0.8-1.8c1.5,1.2,3,2.4,4.7,3.5c1.4,0.9,2.8,1.9,4.3,2.9
	c1.5,0.9,3.1,1.8,4.7,2.7c0.8,0.4,1.6,0.9,2.4,1.4c0.8,0.4,1.7,0.8,2.6,1.2c1.7,0.8,3.5,1.6,5.3,2.4c3.6,1.3,7.3,2.7,11.1,3.9
	c1.9,0.5,3.8,1,5.7,1.5s3.8,1,5.7,1.3s3.8,0.6,5.7,0.9c8.3,1.3,22.9,2,27.1,2.2c3.2,0.1,6.9,0.3,10.2,0.3h5c1.7,0,3.5-0.1,5.1-0.2
	l5.1-0.3l1.3-0.1l1.2-0.1l2.5-0.2c3.4-0.3,6.9-0.6,10.2-1c6.7-0.8,13.4-1.9,20-3.2c6.7-1.3,13.3-2.9,19.8-4.8l4.8-1.4l4.9-1.6
	c3.3-1.1,6.4-2.1,9.6-3.3c6.4-2.3,12.6-5,18.7-7.8c6.1-2.8,12.2-6,18-9.3c6.1-3.5,11.5-7,17.1-10.9c5.4-3.9,10.7-8.1,15.7-12.6
	c4.9-4.6,9.6-9.2,13.9-14.3c4.2-5.1,8.1-10.5,11.3-16.1c0.7-1.3,1.7-3.1,2.3-4.4c0.6-1.3,1.4-3,2.1-4.5c0.3-0.8,0.6-1.5,0.9-2.2
	l0.4-0.9l0.4-1.2c0.6-1.6,1-3.1,1.5-4.6l1.1-4.5l0,0l0.3-1.6l0.2-1.5l0.2-1.7l0.1-1.5c0.1-1,0.1-2,0.2-3s0-2.1,0-3.1
	c0-2-0.2-4.1-0.5-6.1s-0.7-4-1.3-6l-0.2-0.7l-0.2-0.7l-0.5-1.6c-0.4-1.1-0.7-1.9-1.1-2.8c-0.8-1.8-1.7-3.7-2.6-5.5
	c-1-1.8-2.1-3.6-3.3-5.3l-1.8-2.5l-1.9-2.3l-2.2-2.5l-2.1-2.2c-1.5-1.5-3.1-2.9-4.7-4.3s-3.3-2.7-5.1-3.9l-2.6-1.8l-2.6-1.7
	l-5.8-3.4l-5.6-2.8l-6-2.6l-5.1-2c-0.1,0-0.2,0-0.2,0c-0.9-0.3-1.8-0.6-2.6-0.9c-0.2-0.1-0.4-0.2-0.7-0.3c-0.4-0.2-0.8-0.4-1.2-0.7
	c-2-1.3-3.6-3.2-4.6-5.4c-0.6-1.3-0.9-2.7-1-4.1c0.2-1,0.6-2.1,1.2-3.3c0.2-0.3,0.3-0.6,0.4-0.8c3.7-6.3,12.8-13.8,24.6-20.4
	c45.6-25.4,128.9-44.3,207.2,5.2C542.1,104.4,532.2,237.1,532.2,237.1z"/>
<path class="st0" d="M549.4,22.1c0-5.5,3.2-7.2,7.2-7.2h15.1c4.3,0,7.7,1.5,9.2,6.9l22,75.8h0.3L626,21.8c1.7-5.4,5.1-6.9,9.4-6.9
	h14.8c4,0,7.2,1.7,7.2,7.2v96.1c0,5.5-3.2,7.2-7.2,7.2h-5.4c-4,0-7.2-1.7-7.2-7.2V41.5h-0.3l-23.1,77c-1.2,4-3.4,6.9-7.7,6.9h-6.3
	c-4.3,0-6.5-2.9-7.7-6.9l-23.3-77H569v76.7c0,5.5-3.2,7.2-7.2,7.2h-5.1c-4,0-7.2-1.7-7.2-7.2L549.4,22.1L549.4,22.1z"/>
<path class="st0" d="M676.8,139.3c9.4,0,12.6-3.5,15.7-12.5l1.2-3.5l-26.2-71.2c-2.3-6.2,1.2-6.8,4.8-6.8h7.7c4.3,0,6.2,1.4,7.9,6.9
	l14.6,46.7h0.3L717,52.2c1.7-5.5,3.5-6.9,7.9-6.9h6.8c3.5,0,6.9,0.6,4.9,6.8l-23.7,70.1c-8.2,24-14.2,31.6-32.5,31.6
	c-2.3,0-4.5-0.2-6.5-0.3c-3.2-0.3-6.2-0.9-6.2-4.3v-6c0-2.9,1.8-4,4-4C672.9,139.2,674,139.3,676.8,139.3z"/>
<path class="st0" d="M746.4,52.6c0-5.5,3.2-7.2,7.2-7.2h2.8c4,0,7.2,1.7,7.2,7.2V60c5.7-10.8,12.6-15.7,21.1-16.5
	c3.1-0.3,4.5,0.8,4.5,3.5v9.2c0,3.7-2.6,4.3-5.1,4.8c-8.6,1.4-14,6.2-19.1,15.7v41.4c0,5.5-3.2,7.2-7.2,7.2h-4.2
	c-4,0-7.2-1.7-7.2-7.2V52.6z"/>
<path class="st0" d="M810.1,59.8h-4.6c-3.9,0-7.1-1.7-7.1-5.5v-3.4c0-3.8,3.2-5.5,7.1-5.5h4.6V26c0-5.5,3.2-7.2,7.2-7.2h4.3
	c4,0,7.2,1.7,7.2,7.2v19.4h9.4c3.8,0,7.1,1.7,7.1,5.5v3.4c0,3.9-3.2,5.5-7.1,5.5h-9.4v42.1c0,6.5,2.3,9.2,7.9,9.2
	c1.5,0,3.1-0.2,5.1-0.2c2.2,0,3.5,0.6,3.5,4.2v5.9c0,3.8-2.6,4.8-6.5,5.2c-2.5,0.3-5.1,0.5-7.7,0.5c-15.3,0-21.1-5.5-21.1-23.4
	L810.1,59.8L810.1,59.8z"/>
<path class="st0" d="M857.2,22.1c0-5.5,3.2-7.2,7.2-7.2h4.2c4,0,7.2,1.7,7.2,7.2v31.7c8.9-7.4,16.2-10.3,24.8-10.3
	c9.7,0,16,3.4,19.6,9.9c2.8,4.3,3.4,9.9,3.4,20.8v44.1c0,5.5-3.2,7.2-7.2,7.2H912c-4,0-7.2-1.7-7.2-7.2V74.2
	c0-9.1-2.3-14.8-11.2-14.8c-5.7,0-11.6,2.9-17.7,8.8v50.1c0,5.5-3.2,7.2-7.2,7.2h-4.2c-4,0-7.2-1.7-7.2-7.2L857.2,22.1L857.2,22.1z"
	/>
<path class="st0" d="M946,83.1c8-4.5,20.3-7.4,34.8-10.2c0.9-10.8-2.8-15.3-13.1-15.3c-5.5,0-9.9,1.5-13.6,4.9
	c-3.1,2.9-4.6,5.5-9.4,2.5l-2.9-1.8c-5.4-3.4-3.9-6.5-1.2-9.1c6.9-7.7,16.6-10.6,28.3-10.6c20.6,0,30.2,9.1,30.2,28v39.4l0.8,7.9
	c0.3,3.9-0.5,6.6-6.6,6.6h-5.7c-5.5,0-5.9-3.1-6.5-7.1l-0.3-1.8c-7.7,6.5-16.5,10.5-26.3,10.5c-13.4,0-21.7-8.3-21.7-21.7
	C932.8,95,937.3,88,946,83.1z M961.9,112.7c6.6,0,13.6-3.2,18.3-8.6V84.8c-11.2,2.3-17.3,3.9-22.3,6.6c-4,2.3-6,6.3-6,11.2
	C951.9,109,955.7,112.7,961.9,112.7z"/>
<path class="st0" d="M549.4,151.5c0-5.5,3.2-7.2,7.2-7.2h30.8c28.6,0,42.7,11.1,42.7,33.9c0,23.6-15.7,34.5-43,34.5h-16.5v35
	c0,5.5-3.2,7.2-7.2,7.2h-6.8c-4,0-7.2-1.7-7.2-7.2V151.5z M588.1,195.2c9.9,0,20.8-2.6,20.8-17.1c0-10.8-7.2-16-20-16h-18.2v33.1
	H588.1z"/>
<path class="st0" d="M669.3,172.9c22.2,0,35.7,15.7,35.7,42.2c0,25.9-13.6,41.6-35.7,41.6c-22.3,0-35.9-15.7-35.9-41.6
	C633.5,188.6,647,172.9,669.3,172.9z M686,215.1c0-15.6-4.8-27.4-16.6-27.4c-12,0-16.8,11.9-16.8,27.4c0,16,5.1,26.8,16.8,26.8
	C680.9,241.9,686,231.1,686,215.1z"/>
<path class="st0" d="M750.8,172.9c22.2,0,35.7,15.7,35.7,42.2c0,25.9-13.6,41.6-35.7,41.6c-22.3,0-35.9-15.7-35.9-41.6
	C714.9,188.6,728.4,172.9,750.8,172.9z M767.4,215.1c0-15.6-4.8-27.4-16.6-27.4c-12,0-16.8,11.9-16.8,27.4c0,16,5.1,26.8,16.8,26.8
	C762.3,241.9,767.4,231.1,767.4,215.1z"/>
<path class="st0" d="M796.3,151.5c0-5.5,3.2-7.2,7.2-7.2h4.2c4,0,7.2,1.7,7.2,7.2v96.1c0,5.5-3.2,7.2-7.2,7.2h-4.2
	c-4,0-7.2-1.7-7.2-7.2V151.5z"/>
<path class="st0" d="M827.7,236.7l2.8-1.8c4.6-3.1,6.6-0.9,9.6,2c3.8,4,8,5.9,14.5,5.9c8.3,0,12.9-3.7,12.9-9.5
	c0-17.1-42.4-5.7-42.4-36.5c0-14.2,11.9-23.7,28.6-23.7c10.8,0,18.9,2.6,25,9.2c2.6,2.8,4.2,6.2-0.3,8.8l-3.7,2.2
	c-4.2,2.5-4.6,1.4-9.4-2.5c-3.4-2.8-7.1-3.7-11.6-3.7c-6.8,0-10.8,3.2-10.8,8.6c0,15.4,42.7,5.1,42.7,36.2c0,16-12.6,25-31.3,25
	c-12.5,0-20.6-3.2-27.6-10.6C824.2,243.3,823.5,239.4,827.7,236.7z"/>
<path class="st1" d="M129.8,310.8c0-0.1,0-0.2,0-0.4c0-0.7,0.6-1.4,1.4-1.4h1.6c1,0,1.5,0.7,1.7,1.7l5.9,24.5h0.1l5.7-24.5
	c0.2-1,0.9-1.7,1.9-1.7h1.4c1,0,1.6,0.7,1.9,1.7l5.4,24.4h0.1l6.2-24.4c0.2-1,0.7-1.7,1.7-1.7h1.4c0.7,0,1.3,0.6,1.3,1.4
	c0,0.1,0,0.2,0,0.3l-8,30.2c-0.3,1-1,1.7-2,1.7h-1.4c-1,0-1.7-0.7-1.9-1.7l-5.5-23.8h-0.1l-5.6,23.8c-0.2,1-0.9,1.7-2,1.7h-1.4
	c-1,0-1.7-0.7-2-1.7L129.8,310.8z"/>
<path class="st1" d="M177.8,341l9.4-30.2c0.3-1,1.3-1.7,2.3-1.7h2.8c1,0,2,0.7,2.3,1.7L204,341c0,0.1,0,0.2,0,0.4
	c0,0.7-0.6,1.3-1.3,1.3H201c-1,0-1.5-0.7-1.8-1.7l-2.5-8.3h-12l-2.5,8.3c-0.3,1-0.8,1.7-1.8,1.7H179c-0.7,0-1.3-0.6-1.3-1.3
	C177.8,341.2,177.8,341.1,177.8,341z M195.6,328.8l-4.8-15.9h-0.1l-4.8,15.9H195.6z"/>
<path class="st1" d="M223,313h-7.8c-1,0-1.8-0.6-1.8-1.5v-0.8c0-1,0.8-1.5,1.8-1.5h20.1c1,0,1.8,0.6,1.8,1.5v0.8
	c0,1-0.8,1.5-1.8,1.5h-7.8v27.9c0,1-0.8,1.8-1.8,1.8h-0.9c-1,0-1.8-0.8-1.8-1.8V313z"/>
<path class="st1" d="M251.9,310.9c0-1,0.8-1.8,1.8-1.8h16.7c1,0,1.8,0.6,1.8,1.5v0.8c0,1-0.8,1.5-1.8,1.5h-14v10.3h9.5
	c1,0,1.8,0.6,1.8,1.5v0.7c0,1-0.8,1.5-1.8,1.5h-9.5v11.5h14.7c1,0,1.8,0.6,1.8,1.5v0.8c0,1-0.8,1.5-1.8,1.5h-17.4
	c-1,0-1.8-0.8-1.8-1.8L251.9,310.9L251.9,310.9z"/>
<path class="st1" d="M287.8,310.9c0-1,0.8-1.8,1.8-1.8h8.6c8.7,0,12.5,3.2,12.5,9.3c0,4.6-2.5,7.3-6.5,8.7l7.1,14
	c0.1,0.2,0.1,0.4,0.1,0.5c0,0.6-0.5,1.1-1.1,1.1h-2c-1.1,0-1.6-0.7-2.1-1.6l-6.3-12.9h-7.7v12.7c0,1-0.8,1.8-1.8,1.8h-0.9
	c-1,0-1.8-0.8-1.8-1.8L287.8,310.9L287.8,310.9z M298.3,324.3c2.9,0,7.9-0.5,7.9-5.7c0-5-4.1-5.6-7.7-5.6h-6.3v11.3H298.3z"/>
<path class="st1" d="M326.6,339c0-1,0.8-1.8,1.8-1.8h1.6c1,0,1.8,0.8,1.8,1.8v1.9c0,1-0.8,1.8-1.8,1.8h-1.6c-1,0-1.8-0.8-1.8-1.8
	V339z"/>
<path class="st1" d="M354.8,310.8c0-0.1,0-0.2,0-0.4c0-0.7,0.6-1.3,1.3-1.3h1.7c1,0,1.5,0.7,1.8,1.7l7.8,25.9h0.1l8.3-25.9
	c0.3-1,0.7-1.7,1.8-1.7h1.6c0.7,0,1.3,0.6,1.3,1.3c0,0.1,0,0.3-0.1,0.4l-10,30.2c-0.3,1-1.3,1.7-2.3,1.7h-1.4c-1.1,0-2-0.7-2.3-1.7
	L354.8,310.8z"/>
<path class="st1" d="M394.7,310.9c0-1,0.8-1.8,1.8-1.8h0.9c1,0,1.8,0.8,1.8,1.8v30c0,1-0.8,1.8-1.8,1.8h-0.9c-1,0-1.8-0.8-1.8-1.8
	V310.9z"/>
<path class="st1" d="M414.8,335.5c0-0.7,0.4-1.4,1.1-1.6l1.2-0.4c0.9-0.3,1.5,0.2,2,1.2c1.4,3.1,3.6,4.6,7.4,4.6
	c4.1,0,6.9-2,6.9-5.6c0-8.4-17.9-4.3-17.9-16.2c0-5.7,4.4-9,10.4-9c5.1,0,8.5,2.1,10.3,5.9c0.1,0.2,0.1,0.4,0.1,0.7
	c0,0.6-0.4,1.3-1.1,1.5l-1,0.4c-0.9,0.3-1.5-0.2-2.1-1.1c-1.4-2.4-3.2-3.5-6.3-3.5c-3.7,0-6.3,1.8-6.3,5.1c0,7.6,18.1,4,18.1,16
	c0,6.5-4.7,9.8-11.4,9.8c-5.7,0-9.2-2.1-11.4-7.1C414.9,336,414.8,335.7,414.8,335.5z"/>
<path class="st1" d="M453.4,310.9c0-1,0.8-1.8,1.8-1.8h0.9c1,0,1.8,0.8,1.8,1.8v30c0,1-0.8,1.8-1.8,1.8h-0.9c-1,0-1.8-0.8-1.8-1.8
	V310.9z"/>
<path class="st1" d="M473.7,325.9c0-10,4.7-17.3,13.7-17.3s13.7,7.3,13.7,17.3c0,10.7-5.1,17.3-13.7,17.3
	C478.8,343.2,473.7,336.6,473.7,325.9z M496.7,325.9c0-8.6-3.5-13.6-9.3-13.6c-5.7,0-9.3,5-9.3,13.6c0,8.5,3.6,13.5,9.3,13.5
	C493.2,339.4,496.7,334.4,496.7,325.9z"/>
<path class="st1" d="M516.9,310.9c0-1,0.8-1.8,1.8-1.8h2.8c1.1,0,2.1,0.6,2.7,1.5l13.7,23.9h0.1v-23.7c0-1,0.8-1.8,1.8-1.8h0.7
	c1,0,1.8,0.8,1.8,1.8v30c0,1-0.8,1.8-1.8,1.8H539c-1.1,0-1.7-0.6-2.2-1.5l-15.6-26.7h-0.1v26.4c0,1-0.8,1.8-1.8,1.8h-0.7
	c-1,0-1.8-0.8-1.8-1.8L516.9,310.9L516.9,310.9z"/>
<path class="st1" d="M559.1,339c0-1,0.8-1.8,1.8-1.8h1.6c1,0,1.8,0.8,1.8,1.8v1.9c0,1-0.8,1.8-1.8,1.8h-1.6c-1,0-1.8-0.8-1.8-1.8
	V339z"/>
<path class="st1" d="M591.9,325.7c0-10.9,5.1-17.2,13.2-17.2c5.7,0,9.4,2.4,11.3,8.3c0,0.1,0,0.3,0,0.5c0,0.7-0.5,1.4-1.3,1.5
	l-0.7,0.1c-1.6,0.4-2-0.4-2.4-1.3c-1.5-3.7-3.8-5.2-7.1-5.2c-5.4,0-8.7,5-8.7,13.2c0,8.9,2.8,13.6,8.6,13.6c3.6,0,6.2-1.6,7.7-5.6
	c0.3-0.9,0.9-1.5,2.4-1.3l0.7,0.1c0.7,0.1,1.3,0.8,1.3,1.5c0,0.2,0,0.3-0.1,0.5c-2.2,6.5-6.5,8.7-12,8.7
	C596,343.2,591.9,336.6,591.9,325.7z"/>
<path class="st1" d="M632.7,310.9c0-1,0.8-1.8,1.8-1.8h8.6c8.7,0,12.5,3.2,12.5,9.3c0,4.6-2.5,7.3-6.5,8.7l7.1,14
	c0.1,0.2,0.1,0.4,0.1,0.5c0,0.6-0.5,1.1-1.1,1.1h-2c-1.1,0-1.6-0.7-2.1-1.6l-6.3-12.9h-7.7v12.7c0,1-0.8,1.8-1.8,1.8h-0.9
	c-1,0-1.8-0.8-1.8-1.8v-30H632.7z M643.2,324.3c2.9,0,7.9-0.5,7.9-5.7c0-5-4.1-5.6-7.7-5.6h-6.3v11.3H643.2z"/>
<path class="st1" d="M672.5,310.9c0-1,0.8-1.8,1.8-1.8H691c1,0,1.8,0.6,1.8,1.5v0.8c0,1-0.8,1.5-1.8,1.5h-14v10.3h9.5
	c1,0,1.8,0.6,1.8,1.5v0.7c0,1-0.8,1.5-1.8,1.5H677v11.5h14.7c1,0,1.8,0.6,1.8,1.5v0.8c0,1-0.8,1.5-1.8,1.5h-17.4
	c-1,0-1.8-0.8-1.8-1.8V310.9z"/>
<path class="st1" d="M705.6,341l9.4-30.2c0.3-1,1.3-1.7,2.3-1.7h2.8c1,0,2,0.7,2.3,1.7l9.4,30.2c0,0.1,0,0.2,0,0.4
	c0,0.7-0.6,1.3-1.3,1.3h-1.7c-1,0-1.5-0.7-1.8-1.7l-2.5-8.3h-12L710,341c-0.3,1-0.8,1.7-1.8,1.7h-1.4c-0.7,0-1.3-0.6-1.3-1.3
	C705.6,341.2,705.6,341.1,705.6,341z M723.5,328.8l-4.8-15.9h-0.1l-4.8,15.9H723.5z"/>
<path class="st1" d="M750.8,313H743c-1,0-1.8-0.6-1.8-1.5v-0.8c0-1,0.8-1.5,1.8-1.5h20.1c1,0,1.8,0.6,1.8,1.5v0.8
	c0,1-0.8,1.5-1.8,1.5h-7.8v27.9c0,1-0.8,1.8-1.8,1.8h-0.9c-1,0-1.8-0.8-1.8-1.8V313z"/>
<path class="st1" d="M779.7,310.9c0-1,0.8-1.8,1.8-1.8h0.9c1,0,1.8,0.8,1.8,1.8v30c0,1-0.8,1.8-1.8,1.8h-0.9c-1,0-1.8-0.8-1.8-1.8
	V310.9z"/>
<path class="st1" d="M800,325.9c0-10,4.7-17.3,13.8-17.3c9,0,13.7,7.3,13.7,17.3c0,10.7-5.1,17.3-13.7,17.3
	C805.1,343.2,800,336.6,800,325.9z M823,325.9c0-8.6-3.6-13.6-9.3-13.6c-5.8,0-9.3,5-9.3,13.6c0,8.5,3.6,13.5,9.3,13.5
	C819.5,339.4,823,334.4,823,325.9z"/>
<path class="st1" d="M843.2,310.9c0-1,0.8-1.8,1.8-1.8h2.8c1.1,0,2.1,0.6,2.7,1.5l13.7,23.9h0.1v-23.7c0-1,0.8-1.8,1.8-1.8h0.7
	c1,0,1.8,0.8,1.8,1.8v30c0,1-0.8,1.8-1.8,1.8h-1.3c-1.1,0-1.7-0.6-2.2-1.5l-15.6-26.7h-0.1v26.4c0,1-0.8,1.8-1.8,1.8H845
	c-1,0-1.8-0.8-1.8-1.8V310.9z"/>
<path class="st1" d="M885.4,339c0-1,0.8-1.8,1.8-1.8h1.6c1,0,1.8,0.8,1.8,1.8v1.9c0,1-0.8,1.8-1.8,1.8h-1.6c-1,0-1.8-0.8-1.8-1.8
	V339z"/>
<g>
	<path class="st2" d="M171.5,117.4c-2.5,0-4.8,0.4-7,1.2l0,0l0,0l0,0c3.9-3,6.7-7.3,7.8-12.3c-2.1,3-5.7,5.3-9.6,5.3
		c-6.4,0-11.4-5.3-11.4-11.4c0-6.4,5-11.6,11.4-11.6c2.9,0,5.5,1.1,7.6,2.9c-3.6-7.1-10.9-11.9-19.4-11.9c-8.6,0-16,5-19.6,12.1l0,0
		l0,0l0,0c0.1-0.9,0.2-1.7,0.2-2.6c0-4.2-1.2-8-3.3-11.4c0.1,0.7,0.1,1.4,0.1,2.1c0,6.4-5,11.4-11.4,11.4s-11.4-5-11.4-11.4
		c0-6,4.7-11.1,10.8-11.4c-2.1-0.8-4.4-1.2-6.8-1.2c-12.1,0-21.9,9.8-21.9,21.9c0,2.3,0.4,4.5,1,6.6l0,0c-3.1-3.7-7.4-6.5-12.3-7.6
		c3.2,2.1,5.4,5.5,5.4,9.8c0,6.1-5.3,11.4-11.4,11.4c-6.4,0-11.4-5.3-11.4-11.4c0-3.5,1.5-6.5,3.7-8.6c-7.8,3.3-13.2,11.2-13.2,20.1
		c0,8.6,4.9,16,12.1,19.5l0,0c-0.8-0.1-1.6-0.2-2.5-0.2c-4.4,0-8.5,1.4-11.8,3.5c1-0.3,1.9-0.3,2.9-0.3c6.1,0,11.4,5,11.4,11.4
		s-5.3,11.4-11.4,11.4c-6.4,0-11.4-5-11.4-11.4c0-0.6,0.1-1,0.1-1.4c-1.3,2.6-1.8,5.7-1.8,8.7c0,12.1,9.9,21.9,21.9,21.9
		c2.5,0,4.8-0.4,7-1.2l0,0c-4.1,3.2-7.1,7.9-8.1,13.2c1.9-3.8,5.7-6.1,10.1-6.1c6.1,0,11.4,5,11.4,11.4c0,6.1-5.3,11.4-11.4,11.4
		c-3.6,0-6.9-1.8-9-4.6c3.3,8.2,11.2,13.9,20.5,13.9c8.5,0,15.9-4.9,19.6-12.1l0,0c-0.1,0.8-0.2,1.6-0.2,2.5c0,4.6,1.4,8.9,3.9,12.5
		c-0.4-1.1-0.7-2.4-0.7-3.5c0-6.4,5.3-11.4,11.4-11.4c6.4,0,11.4,5,11.4,11.4c0,6.1-5,11.4-11.4,11.4c-0.3,0-0.6-0.1-0.8-0.1
		c2.5,1,5.3,1.5,8.2,1.5c12.1,0,21.9-9.9,21.9-21.8c0-2.6-0.5-5.1-1.4-7.5h0.1c3.2,4.3,8,7.4,13.4,8.4c-3.5-1.9-6.1-5.7-6.1-10
		c0-6.1,5.3-11.4,11.4-11.4c6.4,0,11.4,5.3,11.4,11.4c0,3.2-1.2,6.2-3.5,8.2c7.3-3.5,12.5-11,12.5-19.7s-5.2-16.3-12.7-19.7l0,0
		c1.1,0.2,2.2,0.3,3.4,0.3c4.4,0,8.6-1.2,12.1-3.6c-1,0.3-1.8,0.4-2.9,0.4c-6.4,0-11.4-5.3-11.4-11.4c0-6.4,5-11.4,11.4-11.4
		c6.1,0,11.2,4.7,11.4,11c0.8-2.1,1.2-4.4,1.2-6.9C193.2,127.3,183.5,117.4,171.5,117.4z M162.4,159.3c-1.1-0.2-2.2-0.3-3.3-0.3
		c-11.9,0-21.8,9.7-21.8,21.6c0,2.6,0.5,5.1,1.3,7.4l0,0c-4-5.4-10.4-8.8-17.6-8.8c-8.5,0-15.9,4.9-19.6,12.1l0,0
		c0.1-0.8,0.2-1.7,0.2-2.5c0-12.1-9.9-21.9-21.9-21.9c-2.4,0-4.7,0.4-6.9,1.1l0,0c5.1-4,8.4-10.2,8.4-17.2c0-8.6-4.9-16-12.2-19.6
		l0,0l0,0l0,0c0.8,0.1,1.6,0.1,2.5,0.1c12.2,0,22.1-9.7,22.1-21.9c0-2.3-0.4-4.5-1-6.6l0,0l0,0l0,0c4,4.9,10.2,8.1,17,8.1
		c8.5,0,16-4.9,19.6-12.1l0,0c-0.1,0.8-0.2,1.7-0.2,2.5c0,12.1,9.9,21.8,21.9,21.8c2.5,0,4.9-0.4,7.1-1.2l0,0l0,0l0,0
		c-5.2,4-8.5,10.3-8.5,17.3C149.6,148.2,154.9,155.8,162.4,159.3L162.4,159.3z"/>
</g>
</svg>
